# xmcd CD database file
#
# Track frame offsets:
#	150
#	13456
#	27697
#	41414
#	53750
#	67224
#	81870
#	96769
#	110611
#	125333
#	139929
#	154559
#	168661
#	182055
#	195496
#	210585
#	225681
#	239321
#	253579
#	268081
#	283128
#	297474
#	311880
#	325677
#
# Disc length: 4555 seconds
#
# Revision: 1
# Processed by: cddbd v1.5.2PL0 Copyright (c) Steve Scherf et al.
# Submitted via: CDex 1.70beta1
#
DISCID=6f11c918
DTITLE=Victor Silvester's Jive Band - Victor Silvester's Jive Band
DYEAR=1900
DGENRE=Jazz
TTITLE0=Stompin at the Savoy
TTITLE1=Way down yonder in New Orleans
TTITLE2=Pardon me pretty baby
TTITLE3=Crazy Rhythm
TTITLE4=I'm Comin Virginia
TTITLE5=Poor Butterfly
TTITLE6=I Wish I were twins
TTITLE7=You took advantage of me
TTITLE8=How Am I to know
TTITLE9=Ida sweet as apple cider
TTITLE10=Blue Lou
TTITLE11=Please do it again
TTITLE12=My Melancholy baby
TTITLE13=How come you do me like you do
TTITLE14=The one I love belongs to somebody else
TTITLE15=Love me or leave me
TTITLE16=Indecided
TTITLE17=Boston bounce
TTITLE18=Theres honey on the moon tonight
TTITLE19=Coquette
TTITLE20=Why do I lie to myself about you
TTITLE21=Straighten up and fly right
TTITLE22=Sweet Georgia Brown
TTITLE23=Ac-cent-tchu-ate the positive
EXTD=
EXTT0=
EXTT1=
EXTT2=
EXTT3=
EXTT4=
EXTT5=
EXTT6=
EXTT7=
EXTT8=
EXTT9=
EXTT10=
EXTT11=
EXTT12=
EXTT13=
EXTT14=
EXTT15=
EXTT16=
EXTT17=
EXTT18=
EXTT19=
EXTT20=
EXTT21=
EXTT22=
EXTT23=
PLAYORDER=
